Coordinates
version=1
nRows=12
nColumns=34
inDegrees=no

Units are S.I. units (second, meters, Newtons, ...)
If the header above contains a line with 'inDegrees', this indicates whether rotational values are in degrees (yes) or radians (no).

endheader
time	pelvis_tilt	pelvis_list	pelvis_rotation	pelvis_tx	pelvis_ty	pelvis_tz	hip_flexion_r	hip_adduction_r	hip_rotation_r	knee_angle_r	ankle_angle_r	subtalar_angle_r	mtp_angle_r	hip_flexion_l	hip_adduction_l	hip_rotation_l	knee_angle_l	ankle_angle_l	subtalar_angle_l	mtp_angle_l	lumbar_extension	lumbar_bending	lumbar_rotation	arm_flex_r	arm_add_r	arm_rot_r	elbow_flex_r	pro_sup_r	arm_flex_l	arm_add_l	arm_rot_l	elbow_flex_l	pro_sup_l
20.0141	-0.0922548	0.0104666	4.81197	0.638683	0.7935	0.168208	0.446179	-0.598604	-0.698103	0.422	-0.352379	-0.0759579	-0.133286	0.54593	-0.0471892	-0.129649	1.25269	0.62899	-0.425589	-0.133286	-0.0667442	0.0714902	0.265114	1.41765	-1.17108	-5.07871	0.492836	1.7553	0.0543439	-0.44585	0.171033	0.997141	1.17177
20.0341	-0.0933189	0.0176722	4.81525	0.638827	0.793766	0.169581	0.449449	-0.59587	-0.698054	0.418218	-0.3522	-0.080251	-0.133286	0.550328	-0.047878	-0.129205	1.24921	0.628798	-0.420493	-0.133286	-0.0598033	0.0720018	0.288475	1.48266	-1.20353	-4.89168	0.466084	1.68138	0.127629	-0.46282	0.076751	0.908602	1.23447
20.0541	-0.0944922	0.0238764	4.81669	0.639066	0.793818	0.170731	0.452898	-0.593758	-0.697981	0.415349	-0.352039	-0.0815941	-0.133286	0.553872	-0.0488196	-0.129835	1.24631	0.629367	-0.416757	-0.133286	-0.0544872	0.0733973	0.318657	1.51371	-1.25625	-4.93237	0.496599	1.7553	0.230454	-0.475817	-0.0188977	0.806779	1.31493
20.0741	-0.0947958	0.0287178	4.81698	0.639282	0.793723	0.171591	0.456112	-0.593042	-0.697896	0.413432	-0.351657	-0.0805444	-0.133286	0.556378	-0.0489925	-0.131199	1.24397	0.630096	-0.414576	-0.133286	-0.0506765	0.0741398	0.349299	1.52712	-1.31082	-5.05046	0.544337	1.87007	0.354422	-0.486409	-0.122486	0.700193	1.40769
20.0941	-0.0943199	0.0325473	4.81645	0.63941	0.793496	0.172112	0.459309	-0.593359	-0.697831	0.412102	-0.35122	-0.0780458	-0.133286	0.558758	-0.0483987	-0.132695	1.24269	0.630557	-0.414129	-0.133286	-0.0477796	0.0737241	0.376672	1.52919	-1.35746	-5.17107	0.588118	1.97217	0.491575	-0.496389	-0.232734	0.597777	1.50426
20.114	-0.09372	0.0356655	4.81516	0.639404	0.793187	0.172296	0.462446	-0.593741	-0.697861	0.410684	-0.351149	-0.0749795	-0.133286	0.561627	-0.0476267	-0.133749	1.24274	0.630583	-0.415515	-0.133286	-0.0454329	0.072249	0.398903	1.52002	-1.39219	-5.26922	0.619619	2.04322	0.632818	-0.508028	-0.339474	0.509322	1.58972
20.134	-0.093731	0.0379512	4.81323	0.639296	0.792883	0.172195	0.464814	-0.5933	-0.698105	0.408409	-0.352147	-0.0720968	-0.133286	0.564716	-0.0473358	-0.133991	1.24388	0.630242	-0.418582	-0.133286	-0.0437646	0.0702221	0.415563	1.49933	-1.4149	-5.34395	0.637919	2.0837	0.769103	-0.522752	-0.426424	0.442576	1.64484
20.154	-0.0948076	0.0389875	4.81086	0.639236	0.792672	0.171861	0.465476	-0.591771	-0.698728	0.404726	-0.35527	-0.0701819	-0.133286	0.567209	-0.0478362	-0.133351	1.24553	0.629635	-0.423005	-0.133286	-0.0431875	0.0683555	0.427412	1.47064	-1.42767	-5.39986	0.645333	2.10154	0.895231	-0.539651	-0.482334	0.398295	1.66293
20.174	-0.0970197	0.0385258	4.80817	0.639482	0.792612	0.171311	0.464257	-0.589689	-0.699896	0.399765	-0.361986	-0.0704879	-0.133286	0.568444	-0.0489284	-0.13207	1.24699	0.628693	-0.428687	-0.133286	-0.0438784	0.0672999	0.435509	1.44116	-1.43268	-5.43946	0.644578	2.10569	1.01007	-0.557099	-0.504511	0.37141	1.64777
20.194	-0.100242	0.0364142	4.80508	0.640281	0.792793	0.170463	0.461885	-0.587853	-0.701683	0.39444	-0.374086	-0.075164	-0.133286	0.567984	-0.0501859	-0.1305	1.24764	0.627113	-0.43578	-0.133286	-0.045894	0.0675702	0.440525	1.41926	-1.431	-5.46248	0.637564	2.10325	1.11489	-0.574518	-0.495569	0.354763	1.60738
20.214	-0.104258	0.0323711	4.80139	0.641831	0.793367	0.169176	0.459757	-0.586709	-0.703879	0.39044	-0.393238	-0.0872508	-0.133286	0.565348	-0.0512177	-0.129043	1.24682	0.624411	-0.444345	-0.133286	-0.0495788	0.0694483	0.442666	1.41177	-1.42262	-5.46803	0.625316	2.09882	1.21194	-0.59251	-0.459637	0.342586	1.54952
20.234	-0.108582	0.0259395	4.7969	0.64425	0.794558	0.167279	0.459995	-0.585954	-0.705707	0.390353	-0.419848	-0.110325	-0.133286	0.559684	-0.0516135	-0.128327	1.24358	0.620124	-0.453821	-0.133286	-0.0557945	0.0727311	0.44175	1.422	-1.40688	-5.45706	0.608328	2.09487	1.30336	-0.611892	-0.400425	0.332879	1.47849
